#Comment line ignore any data following # character
#Hierarchical Translation and Rotation (.htr) file
[Header]		#Header keywords are followed by a single value
FileType htr		#Single word string
DataType HTRS		#Translation followed by rotation and scale data
FileVersion 1		#integer
NumSegments 18		#integer
NumFrames 6		#integer
DataFrameRate 60		#integer, data frame rate in this file
EulerRotationOrder ZYX
CalibrationUnits mm
RotationUnits Degrees
GlobalAxisofGravity Y
BoneLengthAxis Y
ScaleFactor 1.000000
[SegmentNames&Hierarchy]
#CHILD	PARENT
Head	Neck
Neck	Chest
Chest	Hips
LeftShoulder	LeftCollar
RightShoulder	RightCollar
LeftElbow	LeftShoulder
RightElbow	RightShoulder
LeftWrist	LeftElbow
RightWrist	RightElbow
Hips	GLOBAL
LeftHip	Hips
RightHip	Hips
LeftKnee	LeftHip
RightKnee	RightHip
LeftAnkle	LeftKnee
RightAnkle	RightKnee
LeftCollar	Chest
RightCollar	Chest
[BasePosition]
#SegmentName Tx, Ty, Tz, Rx, Ry, Rz, BoneLength
Head	0.000003	141.966248	0.000002	-37.745777	-8.179454	6.203664	80.000046
Neck	0.000000	379.566772	0.000000	32.855431	-5.194619	1.823337	141.966263
Chest	0.000000	94.891693	0.000000	0.000002	12.877405	-0.000012	379.566803
LeftShoulder	0.000003	154.023666	0.000005	171.957962	-79.977570	-157.094910	215.219986
RightShoulder	-0.000001	146.408707	-0.000001	20.020029	60.865143	-8.207462	240.139038
LeftElbow	0.000007	215.219971	-0.000011	-24.162848	54.442085	-17.491318	336.440125
RightElbow	-0.000021	240.139038	0.000007	-21.925606	-43.617706	23.102211	322.101532
LeftWrist	-0.000014	336.440094	0.000002	173.178864	-0.531422	156.628021	100.348160
RightWrist	0.000005	322.101501	0.000026	1.868945	1.747480	14.125610	109.739998
Hips	377.886597	1077.530640	704.474976	-179.011169	36.455761	-178.006714	94.891701
LeftHip	95.336761	5.238981	-8.336124	-0.485735	-9.415434	-176.117065	525.916443
RightHip	-96.119095	-4.691877	-4.857316	2.457280	-1.423929	-179.125565	528.302429
LeftKnee	0.000004	525.916443	0.000001	-10.646533	-14.541370	-1.855900	514.711975
RightKnee	-0.000002	528.302429	0.000004	-12.768950	2.118825	-3.063609	521.764099
LeftAnkle	0.000003	514.711975	0.000009	97.965164	-0.000001	0.000000	253.446518
RightAnkle	0.000001	521.764099	-0.000002	99.242271	0.000002	0.000000	256.283173
LeftCollar	19.999998	366.483276	-15.126845	169.660507	-4.312743	90.901894	154.023682
RightCollar	-19.999996	366.483215	-15.126822	171.369568	4.171492	-91.645760	146.408707
#Beginning of Data. Separated by tabs
[Head]
#Fr	Tx	Ty	Tz	Rx	Ry	Rz	SF
241	-0.000009	12.031906	-0.000011	-5.428534	-1.179820	6.618056	0.999999
242	0.000003	12.096237	-0.000003	-5.366097	-1.205997	6.535367	0.999999
243	-0.000006	12.226639	-0.000015	-5.345508	-1.239619	6.700089	0.999999
244	-0.000006	12.278946	0.000006	-5.403169	-1.271666	6.816206	0.999999
245	-0.000001	12.180817	-0.000016	-5.319469	-1.329455	6.787955	0.999999
246	-0.000005	12.270981	-0.000005	-5.641863	-1.427151	6.321822	1.000000
[Neck]
#Fr	Tx	Ty	Tz	Rx	Ry	Rz	SF
241	-0.000000	-12.460388	-0.000001	3.745495	-0.280615	-4.108016	1.084752
242	0.000002	-12.481506	-0.000000	3.704152	-0.234872	-4.210057	1.085205
243	-0.000000	-12.514893	0.000001	3.619990	-0.171466	-4.496560	1.086123
244	0.000000	-12.563873	0.000000	3.508825	-0.097016	-4.787560	1.086492
245	0.000001	-12.559265	-0.000001	3.302081	-0.032922	-4.995921	1.085801
246	-0.000001	-12.434387	-0.000001	3.211074	0.003353	-4.877887	1.086436
[Chest]
#Fr	Tx	Ty	Tz	Rx	Ry	Rz	SF
241	0.000000	-3.115158	0.000000	0.000013	-5.075360	0.000010	0.967172
242	-0.000000	-3.120430	0.000000	-0.000024	-4.959014	0.000019	0.967116
243	-0.000000	-3.128693	-0.000000	-0.000024	-5.012155	0.000014	0.967028
244	0.000000	-3.140938	-0.000000	0.000007	-4.988968	0.000014	0.966899
245	0.000000	-3.139816	-0.000000	-0.000015	-4.897865	0.000013	0.966911
246	-0.000000	-3.108597	-0.000000	0.000006	-4.751465	0.000013	0.967241
[LeftShoulder]
#Fr	Tx	Ty	Tz	Rx	Ry	Rz	SF
241	-0.000003	16.281952	-0.000005	83.665245	35.101933	69.620872	1.193558
242	-0.000005	16.270752	-0.000017	83.338562	35.291431	69.625542	1.193663
243	-0.000003	16.241760	0.000005	82.767906	35.460320	69.226295	1.193709
244	-0.000007	16.178970	-0.000003	82.068375	35.615055	68.613815	1.193783
245	-0.000006	16.141251	-0.000013	81.285904	35.725159	67.870483	1.193856
246	-0.000001	16.023819	0.000004	80.460686	35.816479	67.039070	1.194047
[RightShoulder]
#Fr	Tx	Ty	Tz	Rx	Ry	Rz	SF
241	-0.000002	11.007217	-0.000002	53.868172	-44.286823	-74.428131	1.115174
242	0.000004	11.138977	-0.000006	53.751263	-44.153511	-74.237610	1.115120
243	-0.000006	11.303329	-0.000003	53.668480	-44.030380	-74.082512	1.115045
244	0.000002	11.456192	-0.000005	53.604687	-43.900249	-73.937828	1.114956
245	0.000004	11.591507	0.000004	53.563877	-43.809135	-73.837395	1.114747
246	0.000001	11.690247	0.000006	53.573090	-43.758034	-73.792030	1.114555
[LeftElbow]
#Fr	Tx	Ty	Tz	Rx	Ry	Rz	SF
241	-0.000011	41.657501	0.000025	-5.933449	-11.037032	1.414616	0.928657
242	-0.000029	41.680176	0.000007	-6.005598	-11.508269	1.430961	0.929157
243	-0.000001	41.690155	0.000018	-6.153852	-12.243747	1.526953	0.929637
244	-0.000012	41.706055	0.000012	-6.327785	-13.065321	1.656371	0.930083
245	-0.000007	41.721649	0.000009	-6.496994	-13.781560	1.786078	0.930595
246	0.000004	41.762909	0.000005	-6.690712	-14.442434	1.919755	0.931236
[RightElbow]
#Fr	Tx	Ty	Tz	Rx	Ry	Rz	SF
241	0.000031	27.657623	0.000014	-6.651126	22.698597	-0.172002	0.970550
242	0.000034	27.644775	-0.000009	-6.501728	22.715401	-0.280573	0.971203
243	0.000029	27.626740	-0.000005	-6.361574	22.736483	-0.372532	0.971775
244	0.000022	27.605499	-0.000017	-6.239698	22.722467	-0.439679	0.972401
245	0.000029	27.555237	-0.000010	-6.114400	22.696690	-0.505927	0.972923
246	0.000020	27.509186	-0.000004	-6.022763	22.698259	-0.560091	0.973353
[LeftWrist]
#Fr	Tx	Ty	Tz	Rx	Ry	Rz	SF
241	0.000018	-24.002777	-0.000011	75.670975	-86.667236	-88.578354	1.047033
242	-0.000001	-23.834229	-0.000011	76.939598	-86.617439	-89.650772	1.047841
243	0.000016	-23.672791	-0.000001	77.690323	-86.568726	-90.325043	1.048259
244	0.000009	-23.522705	-0.000007	78.973473	-86.444084	-91.558105	1.048878
245	0.000024	-23.350677	-0.000009	80.877563	-86.236412	-93.380928	1.049615
246	0.000011	-23.134766	0.000009	82.077644	-86.157669	-94.389053	1.049816
[RightWrist]
#Fr	Tx	Ty	Tz	Rx	Ry	Rz	SF
241	0.000016	-9.485809	-0.000003	-95.636971	81.744263	-95.988419	0.966422
242	0.000022	-9.275604	-0.000041	-95.661926	81.916519	-95.874763	0.966595
243	0.000018	-9.091339	-0.000030	-95.727791	82.126198	-95.776230	0.967271
244	-0.000006	-8.889679	-0.000070	-95.907852	82.316559	-95.761581	0.968034
245	0.000005	-8.721344	-0.000012	-96.123657	82.429115	-95.799438	0.969083
246	-0.000002	-8.582947	-0.000000	-96.241547	82.504097	-95.792892	0.970493
[Hips]
#Fr	Tx	Ty	Tz	Rx	Ry	Rz	SF
241	-1143.715088	22.423950	-558.206970	-3.608313	-78.743591	8.621485	0.967171
242	-1140.555298	22.715698	-560.728088	-3.159438	-79.142685	7.916248	0.967116
243	-1137.366211	23.090210	-563.620361	-2.711622	-79.431984	7.238712	0.967029
244	-1134.280273	23.502563	-566.800354	-2.259093	-79.834152	6.597585	0.966900
245	-1131.262451	23.822510	-570.159058	-1.744779	-80.326782	5.923485	0.966911
246	-1128.337158	23.923340	-573.580933	-1.085172	-80.872536	5.126893	0.967241
[LeftHip]
#Fr	Tx	Ty	Tz	Rx	Ry	Rz	SF
241	2.271530	-7.135651	4.818112	10.803960	0.397600	0.635128	1.001689
242	2.051338	-6.918417	4.451928	9.967011	0.387675	0.750401	0.999424
243	2.063957	-6.604215	4.207170	9.140995	0.485155	0.796271	0.998129
244	2.052818	-6.330900	3.930877	8.517376	0.525452	0.827952	0.996009
245	1.950371	-6.044497	3.718894	7.834635	0.529260	0.863141	0.994579
246	1.722153	-5.822132	3.330755	7.271739	0.498784	0.921254	0.992913
[RightHip]
#Fr	Tx	Ty	Tz	Rx	Ry	Rz	SF
241	-0.450508	5.242651	-4.144050	0.951496	1.277115	-6.510290	0.975166
242	-0.288483	5.064428	-4.160285	0.781718	1.218629	-6.453959	0.976099
243	-0.291328	4.769188	-4.384133	0.661869	1.166801	-6.447239	0.977026
244	-0.323647	4.533443	-4.386943	0.605329	1.101735	-6.454915	0.978052
245	-0.268639	4.290954	-4.309520	0.612119	1.072349	-6.484728	0.979265
246	-0.119957	4.086551	-4.259768	0.652321	1.026719	-6.500601	0.980010
[LeftKnee]
#Fr	Tx	Ty	Tz	Rx	Ry	Rz	SF
241	0.000004	0.888489	0.000004	-10.748693	2.428192	4.727315	0.973769
242	-0.000003	-0.302917	0.000001	-9.867362	2.058898	4.420202	0.974715
243	-0.000007	-0.984131	-0.000003	-8.946869	1.685148	4.113117	0.974498
244	-0.000004	-2.098999	-0.000002	-8.341773	1.281914	3.850168	0.975705
245	-0.000001	-2.850769	-0.000003	-7.612722	0.740855	3.531650	0.975706
246	-0.000002	-3.727051	0.000001	-7.060948	0.257204	3.205794	0.975847
[RightKnee]
#Fr	Tx	Ty	Tz	Rx	Ry	Rz	SF
241	0.000003	-13.119873	0.000001	0.892239	15.741724	1.712185	0.990253
242	-0.000005	-12.627075	-0.000002	0.716582	15.415428	1.414326	0.990673
243	0.000010	-12.137146	-0.000003	0.490954	15.207067	1.148611	0.990965
244	-0.000000	-11.595337	-0.000006	0.262809	14.922164	0.867097	0.991405
245	0.000004	-10.954529	-0.000005	0.018528	14.491088	0.568504	0.991678
246	0.000012	-10.560608	-0.000002	-0.194931	14.067885	0.265354	0.992252
[LeftAnkle]
#Fr	Tx	Ty	Tz	Rx	Ry	Rz	SF
241	-0.000007	-13.501099	0.000027	-0.539492	-0.000001	-0.000001	1.027344
242	0.000000	-13.014221	0.000008	-0.665397	-0.000001	-0.000001	1.027364
243	0.000007	-13.126190	-0.000026	-0.856946	-0.000001	-0.000001	1.027436
244	-0.000006	-12.505096	0.000003	-0.965883	0.000000	-0.000002	1.027176
245	-0.000008	-12.504425	-0.000008	-1.137866	-0.000000	-0.000001	1.026844
246	0.000004	-12.431610	-0.000005	-1.248165	0.000000	-0.000001	1.026971
[RightAnkle]
#Fr	Tx	Ty	Tz	Rx	Ry	Rz	SF
241	-0.000017	-5.085449	0.000004	-0.887229	0.000001	0.000003	1.006905
242	0.000004	-4.866455	-0.000023	-0.913156	-0.000001	-0.000001	1.006421
243	0.000000	-4.714294	0.000019	-0.955338	0.000001	0.000003	1.005827
244	0.000014	-4.484375	-0.000009	-0.988511	0.000001	0.000002	1.005775
245	0.000006	-4.341919	0.000006	-1.023228	0.000000	0.000002	1.004704
246	0.000013	-4.042786	0.000000	-1.061901	0.000001	0.000003	1.004693
[LeftCollar]
#Fr	Tx	Ty	Tz	Rx	Ry	Rz	SF
241	0.000002	-11.577179	-0.720918	4.125970	1.871223	10.628751	1.105711
242	-0.000002	-11.600128	-0.719555	4.076097	1.881839	10.542536	1.105638
243	-0.000008	-11.637146	-0.716723	4.057271	1.877064	10.498222	1.105450
244	-0.000004	-11.695251	-0.709768	4.053109	1.848087	10.478415	1.105042
245	0.000008	-11.701569	-0.701301	4.074695	1.809081	10.466483	1.104797
246	0.000004	-11.589661	-0.691266	4.085217	1.764320	10.447239	1.104034
[RightCollar]
#Fr	Tx	Ty	Tz	Rx	Ry	Rz	SF
241	-0.000008	-11.577240	-0.720935	-2.785018	-2.645257	-11.959651	1.075182
242	0.000006	-11.600006	-0.719566	-2.717134	-2.621480	-12.069581	1.076081
243	-0.000008	-11.637177	-0.716728	-2.706834	-2.602077	-12.129797	1.077204
244	0.000000	-11.695190	-0.709747	-2.730344	-2.571004	-12.148822	1.078248
245	-0.000002	-11.701477	-0.701346	-2.779416	-2.538287	-12.141809	1.079172
246	0.000000	-11.589600	-0.691284	-2.832075	-2.499537	-12.121946	1.079847
[EndOfFile]
